<svg xmlns="http://www.w3.org/2000/svg" viewBox="0 0 700 300" width="700" height="300">
    <defs>
        <marker id="arrow" viewBox="0 0 10 10" refX="9" refY="5" markerWidth="6" markerHeight="6" orient="auto">
            <path d="M 0 0 L 10 5 L 0 10 z" fill="#333333" />
        </marker>
    </defs>
    <rect width="100%" height="100%" fill="white"/>
    
    <g transform="translate(50, 50)">
        <text x="75" y="-10" font-family="'Segoe UI', Arial, sans-serif" font-size="16" text-anchor="middle" font-weight="bold">Stack s1 (INVALID)</text>
        <rect x="0" y="0" width="150" height="40" fill="#EEEEEE" stroke="#9E9E9E" stroke-width="2"/>
        <text x="10" y="25" font-family="'Courier New', monospace" font-size="14" fill="#9E9E9E">ptr</text>
        <line x1="0" y1="0" x2="150" y2="40" stroke="#9E9E9E" stroke-width="2"/>
        <rect x="0" y="40" width="150" height="40" fill="#EEEEEE" stroke="#9E9E9E" stroke-width="2"/>
        <text x="10" y="65" font-family="'Courier New', monospace" font-size="14" fill="#9E9E9E">len: 5</text>
        <line x1="0" y1="40" x2="150" y2="80" stroke="#9E9E9E" stroke-width="2"/>
        <rect x="0" y="80" width="150" height="40" fill="#EEEEEE" stroke="#9E9E9E" stroke-width="2"/>
        <text x="10" y="105" font-family="'Courier New', monospace" font-size="14" fill="#9E9E9E">cap: 5</text>
        <line x1="0" y1="80" x2="150" y2="120" stroke="#9E9E9E" stroke-width="2"/>
    </g>

    <g transform="translate(250, 50)">
        <text x="75" y="-10" font-family="'Segoe UI', Arial, sans-serif" font-size="16" text-anchor="middle" font-weight="bold">Stack s2</text>
        <rect x="0" y="0" width="150" height="40" fill="#E3F2FD" stroke="#1565C0" stroke-width="2"/>
        <text x="10" y="25" font-family="'Courier New', monospace" font-size="14">ptr</text>
        <rect x="0" y="40" width="150" height="40" fill="#E3F2FD" stroke="#1565C0" stroke-width="2"/>
        <text x="10" y="65" font-family="'Courier New', monospace" font-size="14">len: 5</text>
        <rect x="0" y="80" width="150" height="40" fill="#E3F2FD" stroke="#1565C0" stroke-width="2"/>
        <text x="10" y="105" font-family="'Courier New', monospace" font-size="14">cap: 5</text>
    </g>

    <g transform="translate(480, 50)">
        <text x="100" y="-10" font-family="'Segoe UI', Arial, sans-serif" font-size="16" text-anchor="middle" font-weight="bold">Heap</text>
        <rect x="0" y="0" width="40" height="40" fill="#E8F5E9" stroke="#2E7D32" stroke-width="2"/>
        <text x="20" y="25" font-family="'Courier New', monospace" font-size="14" text-anchor="middle">h</text>
        <rect x="40" y="0" width="40" height="40" fill="#E8F5E9" stroke="#2E7D32" stroke-width="2"/>
        <text x="60" y="25" font-family="'Courier New', monospace" font-size="14" text-anchor="middle">e</text>
        <rect x="80" y="0" width="40" height="40" fill="#E8F5E9" stroke="#2E7D32" stroke-width="2"/>
        <text x="100" y="25" font-family="'Courier New', monospace" font-size="14" text-anchor="middle">l</text>
        <rect x="120" y="0" width="40" height="40" fill="#E8F5E9" stroke="#2E7D32" stroke-width="2"/>
        <text x="140" y="25" font-family="'Courier New', monospace" font-size="14" text-anchor="middle">l</text>
        <rect x="160" y="0" width="40" height="40" fill="#E8F5E9" stroke="#2E7D32" stroke-width="2"/>
        <text x="180" y="25" font-family="'Courier New', monospace" font-size="14" text-anchor="middle">o</text>
    </g>

    <path d="M 280 20 C 380 20 400 70 465 70" fill="none" stroke="#333333" stroke-width="2" marker-end="url(#arrow)"/>
    <text x="125" y="190" font-family="'Segoe UI', Arial, sans-serif" font-size="14" text-anchor="middle" fill="#C62828">s1 is invalidated after move</text>
</svg>
