<svg xmlns="http://www.w3.org/2000/svg" viewBox="0 0 800 350" width="800" height="350">
    <defs>
        <marker id="arrow" viewBox="0 0 10 10" refX="9" refY="5" markerWidth="6" markerHeight="6" orient="auto">
            <path d="M 0 0 L 10 5 L 0 10 z" fill="#333333" />
        </marker>
    </defs>
    <rect width="100%" height="100%" fill="white"/>
    
    <g transform="translate(50, 50)">
        <text x="75" y="-10" font-family="'Segoe UI', Arial, sans-serif" font-size="16" text-anchor="middle" font-weight="bold">String s</text>
        <rect x="0" y="0" width="150" height="40" fill="#E3F2FD" stroke="#1565C0" stroke-width="2"/>
        <text x="10" y="25" font-family="'Courier New', monospace" font-size="14">ptr</text>
        <rect x="0" y="40" width="150" height="40" fill="#E3F2FD" stroke="#1565C0" stroke-width="2"/>
        <text x="10" y="65" font-family="'Courier New', monospace" font-size="14">len: 11</text>
        <rect x="0" y="80" width="150" height="40" fill="#E3F2FD" stroke="#1565C0" stroke-width="2"/>
        <text x="10" y="105" font-family="'Courier New', monospace" font-size="14">cap: 11</text>
    </g>

    <g transform="translate(50, 200)">
        <text x="75" y="-10" font-family="'Segoe UI', Arial, sans-serif" font-size="16" text-anchor="middle" font-weight="bold">Slice hello</text>
        <rect x="0" y="0" width="150" height="40" fill="#FFF3E0" stroke="#E65100" stroke-width="2"/>
        <text x="10" y="25" font-family="'Courier New', monospace" font-size="14">ptr</text>
        <rect x="0" y="40" width="150" height="40" fill="#FFF3E0" stroke="#E65100" stroke-width="2"/>
        <text x="10" y="65" font-family="'Courier New', monospace" font-size="14">len: 5</text>
        <text x="75" y="100" font-family="'Segoe UI', Arial, sans-serif" font-size="14" text-anchor="middle" font-style="italic">Fat pointer</text>
    </g>

    <g transform="translate(300, 50)">
        <text x="220" y="-10" font-family="'Segoe UI', Arial, sans-serif" font-size="16" text-anchor="middle" font-weight="bold">Heap</text>
        <rect x="0" y="0" width="40" height="40" fill="#E8F5E9" stroke="#2E7D32" stroke-width="2"/>
        <text x="20" y="25" font-family="'Courier New', monospace" font-size="14" text-anchor="middle">h</text>
        <rect x="40" y="0" width="40" height="40" fill="#E8F5E9" stroke="#2E7D32" stroke-width="2"/>
        <text x="60" y="25" font-family="'Courier New', monospace" font-size="14" text-anchor="middle">e</text>
        <rect x="80" y="0" width="40" height="40" fill="#E8F5E9" stroke="#2E7D32" stroke-width="2"/>
        <text x="100" y="25" font-family="'Courier New', monospace" font-size="14" text-anchor="middle">l</text>
        <rect x="120" y="0" width="40" height="40" fill="#E8F5E9" stroke="#2E7D32" stroke-width="2"/>
        <text x="140" y="25" font-family="'Courier New', monospace" font-size="14" text-anchor="middle">l</text>
        <rect x="160" y="0" width="40" height="40" fill="#E8F5E9" stroke="#2E7D32" stroke-width="2"/>
        <text x="180" y="25" font-family="'Courier New', monospace" font-size="14" text-anchor="middle">o</text>
        
        <rect x="200" y="0" width="40" height="40" fill="#E8F5E9" stroke="#2E7D32" stroke-width="2"/>
        <text x="220" y="25" font-family="'Courier New', monospace" font-size="14" text-anchor="middle"> </text>
        <rect x="240" y="0" width="40" height="40" fill="#E8F5E9" stroke="#2E7D32" stroke-width="2"/>
        <text x="260" y="25" font-family="'Courier New', monospace" font-size="14" text-anchor="middle">w</text>
        <rect x="280" y="0" width="40" height="40" fill="#E8F5E9" stroke="#2E7D32" stroke-width="2"/>
        <text x="300" y="25" font-family="'Courier New', monospace" font-size="14" text-anchor="middle">o</text>
        <rect x="320" y="0" width="40" height="40" fill="#E8F5E9" stroke="#2E7D32" stroke-width="2"/>
        <text x="340" y="25" font-family="'Courier New', monospace" font-size="14" text-anchor="middle">r</text>
        <rect x="360" y="0" width="40" height="40" fill="#E8F5E9" stroke="#2E7D32" stroke-width="2"/>
        <text x="380" y="25" font-family="'Courier New', monospace" font-size="14" text-anchor="middle">l</text>
        <rect x="400" y="0" width="40" height="40" fill="#E8F5E9" stroke="#2E7D32" stroke-width="2"/>
        <text x="420" y="25" font-family="'Courier New', monospace" font-size="14" text-anchor="middle">d</text>
    </g>

    <path d="M 80 20 C 220 20 250 70 285 70" fill="none" stroke="#333333" stroke-width="2" marker-end="url(#arrow)"/>
    <path d="M 80 220 C 250 220 280 80 300 70" fill="none" stroke="#333333" stroke-width="2" marker-end="url(#arrow)"/>
</svg>
