<svg xmlns="http://www.w3.org/2000/svg" viewBox="0 0 600 300" width="600" height="300">
    <defs>
        <marker id="arrow" viewBox="0 0 10 10" refX="9" refY="5" markerWidth="6" markerHeight="6" orient="auto">
            <path d="M 0 0 L 10 5 L 0 10 z" fill="#333333" />
        </marker>
    </defs>
    <rect width="100%" height="100%" fill="white"/>
    
    <g transform="translate(50, 50)">
        <text x="75" y="-10" font-family="'Segoe UI', Arial, sans-serif" font-size="16" text-anchor="middle" font-weight="bold">Stack (Vec struct)</text>
        <rect x="0" y="0" width="150" height="40" fill="#E3F2FD" stroke="#1565C0" stroke-width="2"/>
        <text x="10" y="25" font-family="'Courier New', monospace" font-size="14">ptr</text>
        <rect x="0" y="40" width="150" height="40" fill="#E3F2FD" stroke="#1565C0" stroke-width="2"/>
        <text x="10" y="65" font-family="'Courier New', monospace" font-size="14">cap: 6</text>
        <rect x="0" y="80" width="150" height="40" fill="#E3F2FD" stroke="#1565C0" stroke-width="2"/>
        <text x="10" y="105" font-family="'Courier New', monospace" font-size="14">len: 3</text>
    </g>

    <g transform="translate(280, 50)">
        <text x="150" y="-10" font-family="'Segoe UI', Arial, sans-serif" font-size="16" text-anchor="middle" font-weight="bold">Heap (contiguous elements)</text>
        <rect x="0" y="0" width="50" height="40" fill="#E8F5E9" stroke="#2E7D32" stroke-width="2"/>
        <text x="25" y="25" font-family="'Courier New', monospace" font-size="14" text-anchor="middle">10</text>
        <rect x="50" y="0" width="50" height="40" fill="#E8F5E9" stroke="#2E7D32" stroke-width="2"/>
        <text x="75" y="25" font-family="'Courier New', monospace" font-size="14" text-anchor="middle">20</text>
        <rect x="100" y="0" width="50" height="40" fill="#E8F5E9" stroke="#2E7D32" stroke-width="2"/>
        <text x="125" y="25" font-family="'Courier New', monospace" font-size="14" text-anchor="middle">30</text>
        <rect x="150" y="0" width="50" height="40" fill="#EEEEEE" stroke="#9E9E9E" stroke-width="2"/>
        <text x="175" y="25" font-family="'Courier New', monospace" font-size="14" text-anchor="middle" fill="#9E9E9E">?</text>
        <rect x="200" y="0" width="50" height="40" fill="#EEEEEE" stroke="#9E9E9E" stroke-width="2"/>
        <text x="225" y="25" font-family="'Courier New', monospace" font-size="14" text-anchor="middle" fill="#9E9E9E">?</text>
        <rect x="250" y="0" width="50" height="40" fill="#EEEEEE" stroke="#9E9E9E" stroke-width="2"/>
        <text x="275" y="25" font-family="'Courier New', monospace" font-size="14" text-anchor="middle" fill="#9E9E9E">?</text>
    </g>

    <path d="M 60 20 C 180 20 220 70 265 70" fill="none" stroke="#333333" stroke-width="2" marker-end="url(#arrow)"/>
    
    <path d="M 280 110 L 430 110" fill="none" stroke="#2E7D32" stroke-width="2"/>
    <text x="355" y="130" font-family="'Segoe UI', Arial, sans-serif" font-size="12" text-anchor="middle" fill="#2E7D32">len (used: 3)</text>
    <path d="M 280 150 L 580 150" fill="none" stroke="#1565C0" stroke-width="2"/>
    <text x="430" y="170" font-family="'Segoe UI', Arial, sans-serif" font-size="12" text-anchor="middle" fill="#1565C0">cap (allocated: 6)</text>
</svg>
